<!--?xml version="1.0" encoding="utf-8"?-->
<!-- Generator: Adobe Illustrator 18.1.1, SVG Export Plug-In . SVG Version: 6.00 Build 0)  -->

<svg version="1.1" id="_x32_" xmlns="http://www.w3.org/2000/svg" xmlns:xlink="http://www.w3.org/1999/xlink" x="0px" y="0px" viewBox="0 0 512 512" style="width: 256px; height: 256px; opacity: 1;" xml:space="preserve">
<style type="text/css">
	.st0{fill:#4B4B4B;}
</style>
<g>
	<polygon class="st0" points="132.371,512 132.362,512 132.353,512 	" style="fill: rgb(240, 159, 143);"></polygon>
	<path class="st0" d="M209.337,456.559l-0.045,0.036c-21.2,21.21-49.133,31.874-76.911,31.855h-0.018
		c-27.779,0.009-55.711-10.645-76.912-31.846l-0.027-0.027l-0.017-0.018l-0.019-0.017c-21.201-21.193-31.847-49.115-31.828-76.895
		l-0.009-0.018c-0.017-27.734,10.61-55.603,31.721-76.786l0.567-0.504l0.126-0.162c21.138-20.877,48.836-31.379,76.39-31.36
		l0.028-23.55c-33.628-0.036-67.5,12.859-93.227,38.407c-0.036,0.036-0.108,0.108-0.208,0.198c-0.017,0.018-0.036,0.036-0.062,0.054
		c-0.009,0.018-0.064,0.072-0.144,0.153c-0.009,0-0.009,0-0.009,0.009c-0.072,0.072-0.171,0.172-0.288,0.288
		c-25.565,25.727-38.469,59.616-38.442,93.263c-0.028,33.592,12.85,67.436,38.352,93.154l0.17,0.189l0.136,0.136
		c0.098,0.108,0.161,0.162,0.161,0.162l0.117,0.117c25.755,25.673,59.711,38.631,93.425,38.604
		c33.156,0.027,66.51-12.526,92.102-37.335l0.153-0.073l1.35-1.358c0.009-0.009,0.009-0.009,0.018-0.018
		c0.045-0.045,0.054-0.054,0.089-0.099c0.172-0.18,0.28-0.288,0.298-0.306c25.511-25.727,38.398-59.58,38.36-93.191l-23.558,0.027
		C241.201,407.417,230.538,435.358,209.337,456.559z" style="fill: rgb(240, 159, 143);"></path>
	<path class="st0" d="M130.347,429.356c-12.337-0.028-24.324-4.59-33.737-13.958c-9.376-9.422-13.93-21.399-13.966-33.745
		l-0.009-0.026c0.064-12.328,4.616-24.296,13.975-33.692c8.738-8.701,19.681-13.192,31.172-13.839l-1.277-23.514
		c-16.864,0.9-33.601,7.748-46.542,20.697l-0.009,0.009c-13.912,13.903-20.859,32.161-20.868,50.356v0.045
		c0.008,18.195,6.955,36.445,20.858,50.357l0.018,0.008c13.894,13.903,32.152,20.859,50.356,20.859h0.028
		c18.213-0.009,36.463-6.956,50.366-20.85l0.018-0.018c12.94-12.949,19.798-29.678,20.689-46.541l-23.514-1.288
		c-0.638,11.483-5.138,22.434-13.84,31.181c-9.394,9.35-21.353,13.903-33.691,13.958H130.347z" style="fill: rgb(240, 159, 143);"></path>
	<path class="st0" d="M155.147,121.141c-5.751-5.759-13.382-8.684-20.914-8.656c-7.531-0.028-15.171,2.897-20.912,8.656
		l-19.23,19.23c-5.75,5.742-8.675,13.381-8.666,20.914c-0.009,7.531,2.916,15.163,8.666,20.912L329.803,417.91
		c5.741,5.75,13.381,8.684,20.913,8.665c7.532,0.009,15.172-2.916,20.913-8.665l19.23-19.23c5.759-5.742,8.684-13.382,8.666-20.914
		c0.018-7.532-2.907-15.172-8.666-20.913L155.147,121.141z M374.211,382.032l-19.239,19.23c-1.205,1.197-2.682,1.746-4.256,1.764
		c-1.584-0.008-3.051-0.566-4.256-1.764L110.738,165.55c-1.196-1.215-1.745-2.682-1.764-4.265c0.018-1.584,0.568-3.051,1.764-4.257
		l19.24-19.238c1.206-1.197,2.673-1.746,4.256-1.764c1.584,0.018,3.051,0.567,4.266,1.764L374.211,373.51
		c1.197,1.206,1.754,2.673,1.764,4.256C375.958,379.35,375.409,380.817,374.211,382.032z" style="fill: rgb(240, 159, 143);"></path>
	<path class="st0" d="M476.365,35.635C452.636,11.896,421.427-0.018,390.328,0c-31.1-0.018-62.316,11.896-86.036,35.635
		c-11.779,11.779-19.94,25.61-26.114,39.838c-9.232,21.353-14.236,43.778-19.887,63.216c-2.816,9.7-5.759,18.646-9.232,26.241
		c-3.465,7.604-7.424,13.794-12.049,18.411c-0.729,0.729-1.476,1.422-2.26,2.097l15.344,17.862c1.224-1.052,2.42-2.159,3.563-3.302
		c9.719-9.746,15.892-21.921,20.76-34.806c7.236-19.374,11.699-40.881,18.178-60.949c3.221-10.025,6.911-19.662,11.492-28.436
		c4.589-8.801,10.051-16.711,16.854-23.514c19.194-19.185,44.229-28.732,69.388-28.742c25.152,0.009,50.195,9.556,69.39,28.742
		c19.176,19.186,28.724,44.228,28.733,69.38c-0.009,25.152-9.557,50.195-28.733,69.389c-9.079,9.071-20.157,15.766-32.567,21.156
		c-18.6,8.099-40.008,13.003-60.399,18.879c-10.195,2.961-20.148,6.182-29.453,10.43c-9.295,4.238-18.014,9.538-25.303,16.819
		c-1.152,1.152-2.26,2.34-3.312,3.572l17.89,15.316c0.657-0.774,1.35-1.512,2.07-2.232c6.146-6.182,15.172-11.15,26.447-15.37
		c16.873-6.371,38.272-10.888,59.878-17.808c10.798-3.474,21.687-7.586,32.125-13.03c10.438-5.444,20.445-12.256,29.272-21.084
		c23.739-23.721,35.653-54.928,35.635-86.037C512.018,90.572,500.103,59.365,476.365,35.635z" style="fill: rgb(240, 159, 143);"></path>
	<path class="st0" d="M180.496,277.854l-16.656-16.648l-11.554,11.554c-8.792,8.783-13.237,20.41-13.228,31.928
		c-0.009,11.509,4.427,23.136,13.228,31.927l23.1,23.099c8.792,8.801,20.418,13.238,31.936,13.229
		c11.518,0.018,23.135-4.437,31.927-13.229l11.554-11.554l-16.656-16.648l-11.554,11.545c-4.247,4.239-9.71,6.318-15.27,6.335
		c-5.57-0.018-11.033-2.096-15.28-6.335l-23.1-23.099c-4.247-4.247-6.316-9.71-6.335-15.28c0.018-5.561,2.088-11.024,6.335-15.27
		L180.496,277.854z" style="fill: rgb(240, 159, 143);"></path>
</g>
</svg>
